<?xml version="1.0" standalone="no"?>
<!DOCTYPE svg PUBLIC "-//W3C//DTD SVG 1.1//EN" "http://www.w3.org/Graphics/SVG/1.1/DTD/svg11.dtd">
<svg xmlns="http://www.w3.org/2000/svg">
<metadata>Generated by Fontastic.me</metadata>
<defs>
<font id="pearicons" horiz-adv-x="512">
<font-face font-family="pearicons" units-per-em="512" ascent="480" descent="-32"/>
<missing-glyph horiz-adv-x="512" />

<glyph glyph-name="badge-tick-icon" unicode="&#97;" d="M405 352l-24-26c-3-4-3-9-1-13l17-32-34-12c-5-2-8-6-7-11l0-36-35 5c-5 1-10-2-12-7l-16-32-29 21c-4 3-9 3-13 0l-29-21-17 32c-2 4-6 7-10 7-1 0-1 0-2 0l-35-5 1 36c0 5-3 9-8 11l-34 12 17 32c3 4 2 9-1 13l-24 26 30 20c4 3 5 8 5 12l-10 35 36 3c5 1 8 5 10 9l8 35 33-14c4-1 9 0 13 3l23 29 23-28c3-4 9-5 13-3l33 13 8-34c1-4 3-7 7-8l20 20-6 0-9 40c-1 3-3 6-6 7-3 2-6 3-9 1l-39-15-27 31c-4 5-13 5-17 0l-27-31-38 15c-3 2-7 1-9-1-3-1-5-4-6-7l-9-40-42-4c-3 0-6-2-7-5-3-3-3-6-2-9l11-40-34-23c-3-2-5-5-5-7-1-3 0-7 2-10l28-30-20-37c-1-2-1-5 0-8 2-3 4-6 7-6l38-15-1-37-66-158c-1-4 0-9 2-12 4-3 8-4 12-2l58 25 22-59c2-4 6-7 10-7 4 0 9 3 11 7l72 170 73-170c1-4 6-7 10-7 5 0 9 3 10 7l22 59 58-25c4-2 9 0 12 2 4 4 4 8 2 12l-64 153c0 0 0 0 0 0l-1 42 38 14c3 1 6 3 7 6 0 3 0 7-1 9l-20 37 28 30c2 2 3 6 3 10-1 3-2 6-5 7l-25 17-14-16z m-231-311l-16 44c-2 2-4 5-7 6-2 1-5 1-8 0l-43-18 53 125 35 5 18-37c2-2 4-5 7-5 3-1 7 0 10 1l2 2z m238 32l-43 18c-3 1-6 1-8 0-3-1-5-4-7-6l-16-44-53 125 6-4c2-1 4-2 6-2 1 0 2 0 3 0 3 1 6 3 7 6l19 37 32-5z m15 400c-5 0-10-2-12-6l-158-156c0 0 0-1-1-1-1 0-1 0-1 1l-52 52c-3 3-7 5-12 5-5 0-9-1-13-5-2-2-4-7-4-12 0-4 1-8 4-12l53-52c7-7 16-10 25-10 9 0 18 3 25 10l157 157c3 3 5 8 5 13 0 4-1 8-4 11-4 3-7 5-12 5z"/>
<glyph glyph-name="magnify-money-icon" unicode="&#98;" d="M506 28l-118 119 2 2c33 40 52 91 52 143 0 121-99 220-221 220-121 0-221-99-221-220 0-122 99-221 220-221 52 0 103 19 143 52l2 1 119-118c2-4 7-6 12-6 4 0 9 1 12 5 3 4 5 8 5 12-1 4-3 9-7 11z m-286 75c-103 0-187 85-187 189 0 103 84 187 187 187 104 0 189-84 189-187 0-104-85-189-189-189z m2 321c-6 0-13-6-13-13l0-13c-32-5-54-29-54-57 0-19 9-34 21-43 13-9 27-14 42-19 15-4 27-8 34-14 7-5 11-11 11-23 0-17-14-34-41-34-11 0-22 5-30 10-8 6-11 13-11 20 0 6-6 12-13 12-7 0-13-6-13-12 0-16 9-30 21-40 10-7 21-12 33-14l0-13c0-7 6-13 13-13 6 0 13 6 13 13l0 13c32 5 54 29 54 57 0 19-9 34-22 43-12 10-27 15-42 19-14 4-26 8-33 14-7 6-11 12-11 24 0 16 14 33 41 33 11 0 22-4 30-10 8-6 11-13 11-19 0-7 6-13 13-13 6 0 13 6 13 13 0 16-10 30-22 39-9 7-20 12-32 14l0 14c-1 6-7 12-13 12z"/>
<glyph glyph-name="bone-bowl-icon" unicode="&#99;" d="M407 7l-361 0c-15 0-29 7-38 20-9 13-11 29-5 44l44 110c8 17 24 29 43 29l272 0c19 0 37-11 44-29l43-110c6-14 4-31-4-44-8-13-23-20-38-20z m-317 176c-8 0-15-4-18-12l-44-110c-2-6-2-13 2-19 4-5 10-8 16-8l360 0c7 0 13 3 16 8 4 6 5 13 2 19l-43 109c-3 8-10 13-19 13l-272 0z m190-70l-106 0c-8 0-14 6-14 13 0 7 6 13 14 13l106 0c7 0 13-6 13-13 0-7-6-13-13-13z m111 365c24 0 44-19 44-43 0-4-1-7-2-11 3 1 6 2 10 2 0 0 0 0 0 0 19 0 36-11 42-29 11-31-12-59-41-59-13 0-25 6-32 14l-85-84c0-1-2-1-2-1l-89 0c-4 0-5 4-2 7l128 128c-11 10-17 24-14 41 3 17 17 31 35 35 2 0 5 0 8 0m0 27c-5 0-10 0-14-1-29-5-52-29-56-57-3-15-1-29 5-42l-112-112c-9-9-11-22-7-34 5-11 17-19 29-19l89 0c8 0 16 3 22 9l67 68c9-4 19-6 30-6 23 0 44 11 58 29 13 19 17 43 9 66-8 22-27 39-51 45-7 31-36 54-69 54z"/>
<glyph glyph-name="people-in-circle-icon" unicode="&#100;" d="M278 418c26-6 51 12 57 37 6 26-11 51-37 56-26 6-51-11-57-37-6-25 11-50 37-56z m-128-18c3-1 6 0 9 0 33 11 70 11 105-2 35-14 61-39 77-69 2-3 4-5 7-6 5-2 13 1 15 6 1 4 0 7-1 10-15 28-36 51-65 68-7-2-15-2-22 0-14 3-26 11-35 22-30 5-61 3-89-6-4-1-7-3-8-7-1-6 1-13 7-16z m362-123c-3 27-26 45-53 42-20-2-35-15-40-33-1-2-1-3-1-4 0 0 0-1 0-1 0-2-1-3-1-4 0 0 0-1 0-2 0-1 0-2 0-3 0-1 0-2 0-5 3-26 27-44 53-42 26 3 45 27 42 52z m-117-5c-2-37-19-69-43-94-2-2-4-4-4-7-1-7 4-12 10-12 4 0 8 1 10 3 21 22 37 50 44 80-4 8-7 16-8 25-2 15 3 30 11 41-4 28-15 55-32 77-3 3-5 5-10 5-6 1-12-4-12-10 0-4 1-7 3-9 22-28 34-62 31-99z m-67-178c-1 0-1 0 0 0-2 0-4-1-6-2-1 0-1 0-1 0-2 0-5-1-7-2-24-10-35-38-24-62 11-24 39-34 63-24 25 11 35 39 25 63-10 19-30 30-50 27z m77 83c-3-1-5-3-7-6-20-27-50-49-86-58-36-9-72-4-104 11-2 1-5 2-9 1-6-1-10-8-8-14 0-4 3-6 6-8 28-13 60-20 92-17 6 6 13 11 20 14 14 7 29 7 42 3 27 13 49 32 66 56 3 2 4 6 3 10-3 6-9 9-15 8z m-361-42c-20-18-21-48-3-67 17-19 48-20 67-3 20 17 21 47 4 67-18 19-48 21-68 3z m174-55c-34 10-63 32-83 62-20 32-27 67-22 101 1 3 0 7-1 9-4 6-11 8-17 4-3-2-5-5-5-9-5-31-1-64 12-94 7-3 12-7 17-13 10-10 15-23 15-35 22-23 47-38 76-47 3-2 7-1 10 0 6 4 8 11 4 16-1 4-4 5-6 6z m-128 255c12 23 5 52-18 65-23 12-52 5-66-18-12-23-5-52 18-65 23-13 52-5 66 18z m-18-31c-15-27-23-56-22-86 0-3 1-7 4-9 5-4 12-3 16 1 3 3 3 6 3 9 0 34 12 69 35 97 24 29 56 46 90 52 3 0 6 2 8 5 4 5 4 12-1 16-3 2-7 3-10 2-32-6-63-20-88-43-2-6-4-12-7-18-7-12-17-21-28-26z"/>
<glyph glyph-name="person-icon" unicode="&#101;" d="M481 23l-58 0 0 51c0 31-21 62-59 88-15 10-32 20-48 26 26 14 45 39 53 67l0 1c70 146 8 207 0 213-33 33-66 47-98 42-33-5-55-30-66-44l0-1-1 0c-38 0-66-13-80-36-34-55 7-140 21-169l3-5c7-28 27-52 52-68-17-6-35-16-51-26-37-27-59-58-59-88l0-51-58 0c-6 0-11-5-11-11 0-6 5-11 11-11l448 0c6 0 11 5 11 11 0 6-4 11-10 11z m-312 126l78-126-134 0 0 51c0 31 31 57 49 70 3 2 5 3 7 5z m107 25l3 0c10 0 28-5 45-14l-26-42-24 56c1 0 2 0 2 0z m75 276l1 0c3-4 36-36 18-114l-2-9-3 9c-5 22-16 35-32 38-39 9-86 26-93 36-4 4-8 6-12 6-5-1-9-3-11-8 0 0-12-20-35-40-13-11-24-26-31-42l-2-5-1 6c-9 28-16 66-2 89 10 16 29 23 58 23 3 0 5 0 8 0 5 0 9 3 12 7 3 6 21 34 51 39 23 3 49-8 76-35z m-151-103c15 12 25 25 32 33l1 2 2-1c28-17 78-30 92-33 18-4 19-57 10-101l-1-1c-15-28-45-46-78-46-48 0-88 40-89 88 2 23 13 44 31 59z m-11-187c18 9 35 14 45 14l5 0-24-56z m95-65l-27-44-28 44 28 65z m60 54c2-1 5-3 7-5 18-13 49-39 49-70l0-51-134 0z m-87 102c6 0 11 5 11 11l0 35c0 7-5 11-11 11-6 0-11-4-11-11l0-35c0-6 5-11 11-11z m49 46l8 0c6 0 11 5 11 11 0 6-5 11-11 11l-7 0c-7 0-11-4-11-11 0-6 4-11 10-11z m-99 0c6 0 11 5 11 11 0 6-5 11-11 11l-7 0c-6 0-11-5-11-11 0-6 5-11 11-11z"/>
<glyph glyph-name="book-apple-icon" unicode="&#102;" d="M313 324c15-6 27-17 33-31 7-14 7-31 2-46-14 6-27 17-33 31-7 14-8 31-2 46z m113-67c-7 0-14-4-15-11-1-7 4-13 10-15 27-4 54-32 54-82 0-56-42-123-77-123-8 0-17 4-23 10-5 7-12 10-20 10-8 0-16-3-21-10-5-6-14-10-23-10-36 0-77 67-77 123 0 54 32 83 63 83 30 0 41-12 48-17l1-1c-3-8-4-17-4-26-3 2-5 3-7 5-5 5-14 5-19 0-5-5-5-13 0-18 10-10 25-16 39-16 14 0 28 6 38 16 5 5 5 13 0 18-5 5-13 5-18 0-2-2-5-3-7-5 0 12 4 54 52 92 2 2 5 5 5 9 0 3-1 7-3 10-2 3-6 4-10 5-3 0-7-1-10-4-9-7-17-15-24-24-3 18-10 34-21 48-12 13-28 22-45 27-8 2-16-3-20-10-12-23-12-51 0-74 1-3 2-6 5-9-43 0-89-38-89-109 0-65 49-149 103-149 16 0 30 6 41 17l3 2 3-2c10-11 25-17 40-17 55 0 103 84 103 149 0 66-38 101-75 108z m-289 174l71 0 0-75-27 22c-5 5-12 5-16 0l-26-22z m-130-206c0-38 31-69 68-69l94 0c7 0 12 6 12 13 0 7-5 13-12 13l-94 0c-22 0-42 19-42 42 0 23 19 42 42 42l148 0c7 0 13 6 13 13 0 7-6 13-13 13l-148 0c-22 0-42 18-42 42 0 23 19 41 42 41l37 0 0-47c0-5 2-10 7-12 5-2 10-2 14 1l40 33 40-33c3-3 9-4 14-2 5 2 8 7 8 12l0 48 185 0c7 0 12 5 12 13 0 7-5 12-12 12l-185 0 0 44c0 3-2 7-4 9-2 2-6 4-9 4l-98 0c-7 0-12-6-12-13l0-42-37 0c-22 0-42 18-42 42 0 23 19 42 42 42l347 0c8 0 13 5 13 12 0 8-6 14-13 14l-347 0c-29 0-55-19-64-47-10-28 0-58 25-76-18-13-29-33-29-55 0-22 11-42 28-55-17-12-28-33-28-54z"/>
<glyph glyph-name="plus-icon" unicode="&#103;" d="M495 343l-152 0 0 68c0 9-8 17-18 17-9 0-16-7-16-17l1-85c0-9 7-17 17-17l151 0 0-106-151 0c-9 0-17-8-17-18l-1-152-106 0-1 153c0 9-8 17-17 17l-151 0 0 106 150 0c9 0 16 8 16 17l2 152 123 0c9 0 16 7 16 17 0 10-8 18-16 18l-139 0c-9 0-17-8-17-18l-2-152-150 0c-9 0-17-8-17-16l0-140c0-10 8-18 17-18l151 0 1-152c0-9 8-17 17-17l139 0c10 0 18 7 18 17l1 152 151 0c9 0 17 8 17 17l0 139c-1 10-9 18-17 18z"/>
<glyph glyph-name="cash-money-icon" unicode="&#104;" d="M0 160l508 0 0-28-508 0z m0-64l508 0 0-28-508 0z m0-64l508 0 0-28-508 0z m494 480l-480 0c-8 0-14-6-14-14l0-288c0-8 6-14 14-14l480 0c8 0 14 6 14 14l0 288c0 8-6 14-14 14z m-14-288l-452 0 0 260 452 0z m-242 36l32 0c34 0 63 27 63 62l0 64c0 34-28 63-63 63l-32 0c-34 0-62-28-62-63l0-64c0-35 28-62 62-62z m-33 125c0 19 15 35 34 35l31 0c19 0 34-15 34-35l0-64c0-18-15-34-34-34l-32 0c-18 0-34 15-34 34l0 64z m211 3l28 0 0 46c0 8-6 14-14 14l-46 0 0-28 32 0z m-338-128l46 0 0 28-32 0 0 32-28 0 0-46c0-8 6-14 14-14z m-14 174l0-46 28 0 0 32 32 0 0 28-46 0c-8 0-14-6-14-14z m380-160l0 46-28 0 0-32-32 0 0-28 46 0c8 0 14 6 14 14z"/>
<glyph glyph-name="certificate-icon" unicode="&#105;" d="M143 60l256 0 0-8c0-17-14-31-31-31l-236 0c7 9 11 19 10 31l0 1z m-45 71c-3 0-6-2-8-4-2-2-3-5-3-8 0-2 2-5 4-7 2-2 5-3 8-3l163 0c3 0 6 1 8 3 2 2 4 5 4 7 0 3-2 6-4 8-2 2-5 3-8 3l-163 0c0 1-1 1-1 1z m330 58l10-38-10 2c-3 1-7 0-10-3l-8-8-10 36c10 1 20 5 28 11z m-103 0c9-6 18-9 28-12l-10-36-7 8c-3 3-7 4-10 3l-10-2z m-227 7c-3 0-6-1-8-3-2-2-3-5-3-8 0-3 2-6 4-8 2-2 5-3 8-3l163 0c3 0 6 2 8 3 2 2 4 5 4 8 0 3-2 6-4 8-2 2-5 3-8 3l-163 0c0 0-1 0-1 0z m0 66c-3 0-6-2-8-4-2-2-3-5-3-8 0-3 2-5 4-8 2-2 5-2 8-2l152 0c3 0 6 1 8 2 2 3 3 5 3 8 0 3-1 6-3 8-2 2-5 3-8 3l-152 0c0 1-1 1-1 1z m279 43c18 0 33-14 33-33 0-18-15-32-33-32-19 0-33 14-33 32 0 19 14 33 33 33z m0 22c-30 0-55-24-55-55 0-30 24-54 55-54 30 0 55 24 55 54 0 31-25 55-55 55z m-279 0c-3 0-6-1-8-3-2-3-3-5-3-8 0-3 2-6 4-8 2-2 5-3 8-3l152 0c3 0 6 1 8 3 2 2 3 5 3 8 0 3-1 5-3 8-2 2-5 2-8 2l-152 0c0 1-1 1-1 1z m279 21c42 0 76-34 76-76 0-42-34-76-76-76-42 0-76 34-76 76 0 42 33 76 76 76z m-279 44c-3 0-6-2-8-4-2-2-3-5-3-8 0-2 2-5 4-7 2-3 5-3 8-3l217 0c3 0 6 1 8 3 2 2 4 5 4 7 0 3-2 6-4 8-2 2-5 3-8 3l-217 0c0 2-1 2-1 1z m0 65c-3 0-6-1-8-3-2-2-3-5-3-8 0-3 2-6 4-8 2-2 5-3 8-3l217 0c3 0 6 2 8 3 2 2 4 5 4 8 0 3-2 6-4 8-2 2-5 3-8 3l-217 0c0 0-1 0-1 0z m-37 33l295 0 0-122c-44-10-77-49-77-96 0-26 11-50 28-68l-16-65c-1-4 0-8 3-10 3-3 6-4 10-3l21 4 18-18c3-3 8-4 13-2l0-28-224 0c-6 0-11-5-11-11l0-19c1-16-12-29-28-30 0 0-1 0-1 0l-1 0c-17 0-31 14-31 31l0 437z m-12 22c-6-1-10-5-10-11l0-448c0-29 24-52 52-52l277 0c29 0 52 23 52 52l0 18c0 6-5 11-10 11l-33 0 0 92 1 0 15-57c1-4 5-7 8-8 4-1 8 0 11 3l18 17 21-4c3-1 7 1 10 3 3 3 3 6 3 10l-17 65c17 18 28 42 28 69 0 54-44 98-98 98l0 131c0 6-5 11-11 11l-316 0c0 0-1 0-1 0z"/>
<glyph glyph-name="profile-tag-icon" unicode="&#106;" d="M498 392l-166 0-1 1-69 58c-4 3-10 4-15 0l-76-59-159 0c-7 0-13-6-13-12l0-311c1-6 7-11 13-11l485 0c8 0 12 6 13 12l0 310c0 7-6 12-12 12z m-311-17l67 53 62-54 0-30-129 0z m298-294l-462 0 0 287 140 0 0-35c0-7 5-12 12-12l154 0c3 0 6 1 8 3 2 2 3 5 3 9l0 35 146 0 0-287z m-285 202l-125 0c-6 0-12-6-12-12l0-125c0-6 6-12 12-12l125 0c3 0 6 1 8 4 2 2 4 6 4 8l0 125c0 6-6 12-12 12z m-112-124l0 100 100 0 0-100z m201 100l102 0c4 0 7 1 9 4 2 2 4 5 4 8 0 7-6 13-13 13l-102 0c-7 0-12-6-12-13 0-7 5-12 12-12z m0-54l143 0c3 0 6 2 8 4 3 2 3 5 3 8 0 7-5 12-12 12l-142 0c-7 0-12-5-12-12 0-7 5-12 12-12z m143-29l-143 0c-7 0-12-5-12-12 0-7 5-12 12-12l143 0c7 0 11 5 11 12 1 7-5 12-11 12z"/>
<glyph glyph-name="scales-icon" unicode="&#107;" d="M448 415l52 0c8 0 15 8 15 16 0 8-7 15-15 15l-163 0-1 5c-10 36-42 61-79 61-36 0-69-25-79-60l-1-5-5 0c-1 0-2 0-2 0l-155 0c-8 0-15-7-15-15 0-9 7-16 15-16l52 0-58-156c-6-16-9-32-9-49 0-44 37-81 81-81 45 0 81 37 81 81 0 17-3 33-8 49l-59 155 74 0c1 0 2 0 3 0l5 0 1-5c8-28 30-51 59-58l5-2 0-234-28 0c-33 0-60-27-60-59l0-28-50 0c-9 0-15-7-15-15 0-8 7-15 15-15l308 0c9 0 15 7 15 15 0 8-7 15-15 15l-51 0 0 29c0 33-27 59-59 59l-28 0 0 234 5 2c28 7 50 30 58 58l2 5 82 0-59-156c-6-16-9-32-9-49 0-44 37-81 81-81 45 0 82 37 82 81 0 17-3 33-9 49z m-323-166c4-12 7-24 7-38 0-27-23-50-51-50-28 0-50 23-50 50 0 13 2 25 6 38l44 116z m176-163c8 0 15-3 20-8 5-5 8-12 8-19l0-30-144 0 0 29c0 15 12 28 29 28z m-8 310c-9-10-22-15-36-15-20 0-38 13-46 32-8 19-4 40 11 54 14 15 35 19 54 11 19-8 31-26 31-46 1-14-4-27-14-36z m176-220c-10-9-22-14-36-14-28 0-50 22-50 50 0 13 2 25 6 37l44 117 44-117c4-11 6-24 6-37 0-14-5-26-14-36z"/>
<glyph glyph-name="dog-bone-icon" unicode="&#108;" d="M447 218c-23 23-59 28-87 12-45 46-90 91-130 129 17 28 12 64-12 87-14 13-32 20-51 20-18-1-36-9-49-22-9-11-16-24-18-38-15-3-28-10-37-20-13-13-20-32-20-50 0-20 8-37 22-50 23-23 59-26 86-9l126-127c-17-28-13-63 10-87 12-13 30-21 49-22 1 0 1 0 2 0 18 0 35 7 49 20 11 10 18 23 20 37 14 2 27 9 37 19 14 13 22 31 22 50 1 19-6 37-19 51z m-63-99c1-15-4-30-14-40-19-18-49-17-66 1-10 10-14 22-14 34 1 13 7 25 17 35l3 2-158 158-2-3c-8-9-20-16-33-17-12 0-25 5-35 14-9 8-14 21-14 33 0 12 4 24 12 33 10 11 25 16 40 14l4 0 0 4c-3 15 1 30 11 40 18 18 48 19 66 1 9-9 15-22 14-35 0-13-5-25-15-33l-3-2 3-3c62-60 105-103 156-156l2-3 3 3c9 10 21 16 34 16 12 0 25-5 34-14 18-19 17-49-2-67-10-10-25-14-39-12l-5 1z m-198 366c38 0 69-31 69-69 0-7 5-14 13-14 7 0 14 6 14 14 0 53-43 96-96 96-8 0-14-6-14-14 0-7 6-13 14-13z m133-458c-38 0-69 31-69 69 0 7-5 14-13 14-8 0-14-6-14-14 0-53 44-96 96-96 7 0 14 6 14 14 0 7-6 13-14 13z"/>
<glyph glyph-name="dog-tail-waggle-icon" unicode="&#109;" d="M29 79c-9 0-17 3-22 10-10 11-9 30 3 40l109 94c6 6 11 13 17 20l1 1c11 10 22 21 31 34l4 5 6-1c35-6 54 5 75 16 23 12 46 24 84 11 30 14 53 38 68 68 6 12 21 18 34 11 6-3 11-8 13-14 2-7 2-14-1-20-15-32-37-57-65-76 7-10 13-22 19-37 1-4 15-74 22-119 2-8 0-16-5-22-5-6-11-11-19-12-1 0-1 0-2 0-16-2-30 9-32 25-1 6-2 13-3 19-3-11-7-22-12-34-4-10-13-17-24-18-5-1-10 0-15 2-7 3-13 9-16 16-3 7-3 15 0 23 6 14 6 39 7 58-23-19-65-50-100-49-17 0-44 10-59 19l-100-63c0-1-1-1-1-1-5-4-11-6-17-6z m121 151c-6-7-12-14-18-21l-1 0-109-94c-4-4-4-10-1-14 2-2 5-4 8-4 1 0 3 1 5 2l1 1 2 1c0 0 0 0 0 0l111 70 5-4c10-7 38-18 53-18 0 0 1 0 1 0 33 0 81 40 97 53 6 5 7 6 10 7l13 3-2-14c0-4 0-10 0-19-1-20-1-48-8-66-1-2-1-5 0-8 1-3 3-5 5-6 2-1 4-1 6-1 4 0 7 3 9 6 14 33 20 62 20 87l0 6 5 2 10 8 4-13c4-13 6-28 7-44 1-11 2-22 4-34 1-6 6-10 12-10l1 0c2 1 5 2 7 5 1 2 2 5 2 8-8 46-21 111-23 116-5 16-11 27-20 37l-1 1c0 1-1 2-1 2l-5 9 9 4c28 18 51 43 66 74 1 2 1 4 1 6-1 1-2 3-4 4-3 1-7 0-9-3-17-36-44-62-80-79l-4-1-3 1c-33 13-51 3-73-8-21-11-44-24-82-19-9-12-20-23-30-33z m158-113z m-199 116c-2 0-5 1-7 3-13 14-26 25-30 26-5 1-12 0-18-1-14-1-30-3-39 9-9 10-12 16-12 33-1 20 27 29 46 36 2 1 5 1 7 2 11 5 20 18 23 22 0 1 1 2 1 2 1 2 6 13-8 24-7 5-6 12-3 16 6 10 25 10 38 4 21-10 26-26 26-40 27-13 44-42 51-65 2-5-1-11-6-12-5-2-11 1-12 6-6 22-23 48-46 55l-7 3 1 7c1 16-3 23-15 29-2 1-4 1-6 2 5-8 7-16 7-21 0-9-3-16-5-19l-1-1c-3-5-15-23-32-30-2-1-5-1-8-2-28-9-33-15-33-17 1-14 2-15 7-21 4-4 14-3 23-2 8 0 16 1 23 0 13-2 33-23 42-32 3-4 3-10-1-13-1-3-3-3-6-3z m274 143c-1 0-2 0-3 0-4 2-7 7-5 11 0 0 3 6 8 13 4 5 13 13 28 13 0 0 1 0 2 0 4-1 8-5 8-9 0-3-1-5-3-6-2-2-4-3-6-2-1 0-1 0-1 0-10 0-16-8-18-12-1-1-1-2-1-2-2-4-6-6-9-6z m-1 8z m-19-1c0 0-1 0-1 0-3 1-5 1-6 3-2 2-2 4-2 6 0 1 2 11 8 21 5 7 17 20 40 20 2 0 4 0 7 0 4-1 8-5 7-10 0-4-4-7-9-7-1 0-3 0-4 0-17 0-26-8-31-23-1-2-1-3-1-3 0-4-4-7-8-7z m1 8z m106-57c-2 0-4 0-5 2-2 1-3 3-3 6 0 2 0 4 2 6 4 5 7 10 7 15 0 7-5 12-6 14 0 0-1 1-1 1-1 1-2 3-3 6 0 2 1 4 2 6 2 1 4 2 6 3 3 0 5-1 6-2 0 0 1-1 1-1 2-2 11-11 11-26 0-9-4-18-10-27-2-2-4-3-7-3z m1 8z m21-23c-1 0-3 0-4 1-4 3-5 8-3 12 6 9 10 19 10 29 0 13-5 23-7 26-1 1-1 2-1 2-2 2-2 4-1 7 0 2 2 4 4 5 4 3 9 2 12-2 0-1 10-16 10-38 0-14-4-27-12-39-2-2-5-3-8-3z m1 74z m1 1z"/>
<glyph glyph-name="thumbs-up-icon" unicode="&#110;" d="M340 303c4 18 9 49 12 61 3 16 1 24-1 34-1 2-2 5-3 9-3 17-18 45-21 51-1 2-3 3-4 5-7 3-14 4-21 4-17 0-27-10-29-12-2-1-3-4-3-7l0-64 0-1c-20-32-59-98-68-109-3-4-8-9-14-13l-3-2-5 10c0 1-1 2-2 4-8 9-20 14-33 14l-101 0c-12 0-24-5-33-14-8-9-12-22-12-34l12-153c2-23 22-41 45-41l89 0c12 0 24 5 33 13 1 2 2 3 2 4l3 6 2 0c4 0 8 0 10 0l1 0c1 0 1-1 2-1l0 0c2-2 5-3 10-6 11-7 18-9 22-9 2 0 52 0 102 0 88 0 92 1 94 1 15 2 34 14 41 33 4 13 0 23-4 29l-2 3 3 2c6 4 15 12 18 25 4 12 0 22-4 27l-2 2 3 2c7 6 18 15 19 29 1 9 0 16-4 22l-1 3 2 2c8 6 18 16 19 30 2 12-2 21-6 25l-2 1c-8 9-21 10-23 11l-144 0z m-175-221l-4-11c-4-3-10-5-15-5l-90 0c-12 0-22 10-23 22l-12 153c0 6 2 12 6 17 5 5 11 7 18 7l101 0c5 0 11-2 15-5l0-2 4-10z m317 195c3-1 6-2 8-4 1-2 2-4 2-7l0-2c-1-12-18-20-18-21-4-1-5-4-6-8l-1-6c0-5 2-9 7-11l0-1c2 0 3-3 3-10-1-11-17-17-17-17-3-1-5-4-6-7l-3-9c-1-4 1-9 6-11 4-3 6-8 4-13-3-12-15-16-16-16-3-1-6-4-7-8l-2-8c0-4 2-8 5-11 2-1 7-6 4-14-3-11-16-18-22-19-3 0-18 0-92 0-35 0-69 0-88 0l-12 0c-2 0-5 1-12 5-4 3-7 4-9 6-3 2-6 3-11 4-1 0-4 0-8 0l-3 0 0 147 1 0c10 5 24 12 32 24 5 7 20 31 68 111l2 4c1 2 2 4 2 5l0 63 2 1c4 2 10 2 15 0l1 0 0-2c3-4 14-28 17-41 1-4 2-7 2-10 3-8 3-11 1-24-4-18-15-77-15-77-1-3 0-7 2-9 2-2 5-4 8-4z"/>
<glyph glyph-name="eye-icon" unicode="&#111;" d="M257 333c-151 0-229-105-249-137l-1-1c-4-3-7-8-6-14-1-6 2-11 6-14l1-1c20-32 97-137 249-137 151 0 228 105 249 137l0 1c5 3 7 8 7 14 0 6-2 11-7 14l0 1c-21 32-98 137-249 137z m0-274c-133 0-204 92-222 120l-1 2 1 1c19 29 90 121 222 121 133 0 203-92 221-121l1-2-1-1c-18-28-90-120-221-120z m0 226c-59 0-105-48-105-105 0-58 47-105 105-105 58 0 105 47 105 105 0 57-48 105-105 105z m0-181c-41 0-75 34-75 75 0 41 33 75 75 75 41 0 75-33 75-75 0-41-34-75-75-75z m0 379c-9 0-16-7-16-15l0-59c0-8 7-15 16-15 8 0 15 7 15 15l0 59c-1 8-7 15-15 15z m210-59c-4 0-7-1-11-4l-41-42c-3-2-5-6-5-11 0-3 2-7 5-11 5-5 16-5 21 0l41 42c3 3 5 6 5 11 0 4-1 8-5 11-2 2-6 4-10 4z m-414 0c-4 0-8-2-11-4-6-6-6-16 0-21l42-42c6-6 16-6 21 0 6 6 6 15 0 22l-42 41c-2 2-6 4-10 4z"/>
<glyph glyph-name="eye-with-tick-icon" unicode="&#112;" d="M257 394c8 0 15 7 15 16l0 58c0 8-7 15-15 15-9 0-16-7-16-15l0-59c0-8 7-15 16-15z m179-37l41 42c3 2 5 6 5 11 0 3-1 7-5 10-2 3-6 5-10 5-4 0-8-1-11-5l-42-41c-2-3-4-7-4-11 0-4 1-8 4-11 6-6 16-6 22 0z m-352 0c6-6 16-6 21 0 6 6 6 15 0 22l-42 41c-2 2-6 4-11 4-4 0-7-2-10-4-6-6-6-16 0-21z m247-169c0-3 1-6 1-9 0-41-34-75-75-75-41 0-75 34-75 75 0 41 33 75 75 75 14 0 27-4 39-11l21 21c-17 12-38 20-60 20-59 0-105-47-105-105 0-58 47-105 105-105 58 0 105 48 105 105 0 12-2 23-6 33z m175 7l0 1c-21 32-98 137-249 137-151 0-229-105-249-137l-1-1c-4-3-7-8-6-14-1-6 2-11 6-14l1-1c20-32 97-137 249-137 151 0 228 105 249 137l0 1c5 3 7 8 7 14 0 6-2 11-7 14z m-28-16c-18-28-90-120-221-120-133 0-204 92-222 120l-1 2 1 1c19 29 90 121 222 121 32 0 60-5 85-14 13 12 33 12 45 0 7-7 10-17 9-26 45-28 72-65 82-81l1-2z m-98 92c-1 1-2 3-2 4-1 1-2 1-2 2-1 1-2 2-4 3 0 0 0 0 0 0-1 1-2 1-3 2 0 0 0 0 0 0-2 0-2 0-4 0-1 0-2 0-3 0-2 0-3-1-4-2 0 0-1 0-1 0-1-1-2-2-3-3l-99-98c0-1-1-1-1 0l-25 25c-6 6-17 6-22 0-6-7-7-17 0-23l23-24c7-7 15-10 24-10 8 0 17 3 24 10l49 49 23 23 26 26c1 1 2 2 2 3 0 0 1 1 1 1 0 0 1 1 1 1 0 1 0 1 0 2 0 0 0 0 1 1 0 1 0 1 0 1 0 0 0 1 0 1-1 1-1 4-1 6z"/>
<glyph glyph-name="greyhound-icon" unicode="&#113;" d="M204 75c7 5 13 10 20 16 3 1 5 3 7 5 31 23 29 55 28 65-1 8-5 14-10 19 18 5 41 13 61 28 6 4 7 12 3 17-5 6-12 7-18 3-25-19-56-24-74-28-4-1-7-1-9-2-5-1-9-6-10-12 0-6 4-11 10-12 7-2 21-9 22-17 1-6 2-27-19-41-2-2-5-4-6-6-7-5-13-10-19-14-10-6-26-21-33-30-6-6-6-12-5-15 0-4 3-10 10-13 15-7 25-9 33-12 2 0 3 0 5-1 9-3 16 1 21 4 0 0 1 0 1 0 0 0 1-2 2-5-2-2-2-5-2-8 1-7 7-11 13-11 0 0 1 0 2 0 5 1 10 4 12 8 2 4 4 9 0 18-3 6-7 18-19 21-8 5-16 0-20-1-1-1-3-2-3-2-2 1-3 1-5 2-6 1-12 3-20 6 7 6 16 14 22 18z m-65-40c0 0 0 0-1 0 6 11 4 26 0 37-3 6-10 9-16 7-6-2-10-10-8-16 3-6 3-15 1-17-5-8-6-16-2-23 4-8 14-13 26-13 6 0 12 6 12 12 0 7-5 13-12 13z m320 461c-5 9-13 12-24 10l-1 0c-5 0-10-1-16-2-5-1-10-2-16-3 0 0-1 0-1 0-6-1-9 0-12 2-15 14-31 8-36 6-8-4-16-6-24-8l-1 0c-10 7-17 10-30-1-13-12-21-26-30-40l11-7 9-5c-1-2-1-5-3-8-3-10-7-21-10-32-2-7-15-48-63-81-9-7-19-14-30-20-36-23-63-54-81-93-7-15-17-45-12-91 6-57-35-95-35-96-5-4-6-12-1-17 3-3 6-4 9-4 4 0 7 1 9 3 1 2 50 47 43 117-5 39 4 64 10 77 15 34 40 62 71 82 12 7 22 14 32 21 54 37 69 85 71 95 4 10 7 20 10 30 3 7 5 14 7 21 3 7 0 14-7 16-1 0-3 1-4 0 3 5 6 8 10 12 0 0 1 0 1 0l1-1c6-4 12-5 19-3 9 2 18 5 27 9 6 2 8 2 11-1 0 0 0 0 0-1 12-8 24-8 33-7 6 1 12 2 17 3 4 1 7 1 11 2 0-1-1-1-1-1 0-2-1-4-3-5-7-2-12-5-18-7-4-2-8-3-12-5-3-2-7-3-11-4-8-3-17-5-26-11-15-10-21-27-24-39-3-14-1-29 1-46 3-16 5-35 3-57 0-1 0-1 0-1 0-3 0-7-1-12l0-1c-1-1-2-4-4-9-9-25-20-52-21-63-2-11-3-22-4-33 0-5-1-11-1-16l0-1c-2-14-4-28-5-43 0-15 0-17 0-33 0 0 0 0 0 0 1-14 3-27 6-41 2-12 7-21 17-24-5 0-10-2-13-7-3-6 0-14 6-17 6-3 12-3 18-3l5 0c2 0 5 0 8 0 5 2 9 4 11 9 2 3 4 9 0 18-3 8-9 22-26 23 0 0-1 2-1 5-3 13-5 25-6 39 0 15 0 15 0 30 1 13 3 26 5 41l0 1c0 5 1 11 1 16 2 10 2 21 4 31 1 10 15 45 20 58 4 10 5 12 5 14l0 0c1 5 2 11 2 16 2 25-1 46-4 64-2 14-3 26-2 36 4 12 7 20 14 24 6 4 12 6 19 8 5 1 9 2 14 4 4 2 8 3 12 5 6 2 12 5 18 7 8 4 13 10 16 17 4 6 10 16 3 28z m-121-468c-1 0-3 0-4 1 2 0 4-1 4-1z"/>
<glyph glyph-name="hand-cog-icon" unicode="&#114;" d="M292 323c-11 0-21 4-29 12-8 8-12 18-12 29 0 17 10 32 26 38 15 7 33 3 45-9 12-12 16-30 9-45-7-15-22-25-39-25z m0 62c-3 0-5 0-8-1-7-4-12-11-12-19 0-6 2-11 6-15 4-4 9-7 15-7 9 0 16 5 19 13 4 8 2 17-4 23-5 4-11 6-16 6z m-165-385l-113 110 78 78c16 15 36 26 57 31 22 5 44 4 65-4l14-5 93 0c11 0 22-4 30-12 7-7 11-18 11-29-1-22-19-39-41-39 0 0-1 0-1 0l-57 0c-1 0-1-1-1-1 0-1 0-2 1-2l58 0c23 0 43 19 45 42l0 5 55 62c15 17 41 19 58 6 8-7 14-18 15-29 0-11-3-22-10-30l-106-121c-16-19-40-29-64-29l-155 0z m-84 110l84-82 24 24 163 0c19 0 37 8 49 22l106 121c3 4 5 10 5 15-1 6-4 11-8 15-9 8-22 6-30-2l-51-57c-3-34-31-59-64-59l-58 0c-12 0-22 10-22 22 0 13 10 22 22 22l57 0c11 0 21 9 21 20 0 5-2 11-5 15-4 3-9 5-15 5l-96 0-17 6c-17 6-37 7-54 3-18-4-35-13-47-26z m258 107l-18 0c-13 0-23 9-26 21l-2 14c-6 3-11 5-17 7l-10-8c-11-7-25-6-34 3l-12 12c-9 9-10 23-3 33l9 12c-3 5-5 11-7 17l-14 3c-13 2-21 12-21 25l0 18c0 13 9 24 21 26l14 2c2 6 5 11 7 17l-9 12c-7 11-6 24 3 33l17 16 0-1c9 5 20 5 29-1l11-9c5 3 11 5 16 7l2 14c3 13 13 21 26 21l18 0c13 0 23-9 25-21l3-14c5-2 11-4 16-7l12 9c11 7 24 6 33-3l13-12c9-9 10-24 2-33l-8-13c3-5 5-10 6-16l14-3c13-2 22-13 22-25l0-17c0-13-9-24-22-26l-14-3c-1-6-4-11-6-16l8-12c7-10 7-24-3-33l-12-12c-9-9-22-10-33-3l-12 9c-5-3-11-5-16-7l-3-14c-2-13-12-22-25-22z m-63 67l6-4c7-4 15-7 23-10l7-1 5-27c0-3 3-5 5-5l18 0c3 0 5 2 6 5l5 27 6 1c8 2 16 6 24 10l5 4 23-16c2-1 5-1 7 1l12 12c3 2 3 5 1 7l-16 22 4 6c4 7 7 15 9 23l2 7 27 5c3 0 5 2 5 5l0 18c0 3-2 5-5 6l-27 5-2 6c-2 8-5 16-10 24l-3 5 15 23c2 2 2 6 0 7l-12 12c-3 2-5 2-8 1l-22-16-5 4c-7 4-15 7-24 10l-6 1-5 27c-1 3-3 5-6 5l-18 0c-2 0-5-2-5-5l-5-27-7-1c-7-2-15-6-23-9l-6-4-22 16c-2 1-5 1-7-1l-13-15c-2-2-3-5-1-7l15-23-3-6c-4-7-8-14-10-23l-1-6-27-5c-3-1-5-3-5-6l0-16c0-3 2-5 5-6l27-5 1-7c2-7 6-15 10-23l3-6-15-22c-2-3-2-6 1-8l12-12c2-2 5-2 7 0z"/>
<glyph glyph-name="heart-tick-icon" unicode="&#115;" d="M447 342l-26-26c3-27-6-54-26-74-28-29-56-58-85-86-27-28-55-55-82-83l-2-2-169 171c-35 35-35 90 0 126 17 16 39 26 63 26 23 0 45-9 62-26l33-34c6-6 17-6 22 0l34 33c23 24 58 32 89 22l24 24c-46 22-100 13-136-23l-22-22-22 22c-23 23-53 35-85 35-32 0-62-12-84-35-47-47-47-124 0-170l180-182c6-7 16-7 22 0l181 181c31 32 42 80 29 123z m53 136c-5 0-8-2-11-5l-253-252c-2-2-6-4-10-4-3 0-7 1-9 4l-84 85c-3 3-7 4-11 4-5 0-8-2-12-4-3-3-4-7-4-11 0-4 2-8 4-11l85-85c9-8 20-13 31-13 13 0 24 5 32 14l252 252c3 3 4 7 4 11 0 5-1 8-4 11-3 2-7 4-10 4z"/>
<glyph glyph-name="house-sun-tree-icon" unicode="&#116;" d="M501 69l-129 0 0 138 25 25c2 2 3 5 3 8 0 4-1 7-3 9-3 2-6 4-9 4-3 0-6-2-9-4l-7-6 0 57c0 7-5 12-12 12-7 0-13-5-13-12l0-24-12 12c-5 5-13 5-18 0-5-5-5-13 0-18l30-30 0-172-101 0 0 76c5-3 12-1 15 4 4 6 2 13-3 16l-74 47c-4 3-9 3-12 0l-77-47c-2-2-4-4-5-7 0-3 0-6 1-9 3-5 10-7 15-4l0-75-73 0c-7 0-13-6-13-13 0-7 6-12 13-12l468 0c7 0 13 5 13 12 0 7-6 13-13 13z m-247 90z m-31-90l-12 0 0 44c0 20-16 35-35 35-19 0-35-15-35-35l0-44-11 0 0 89 48 30 45-29 0-90z m-35 0l-23 0 0 44c0 7 5 12 11 12 7 0 12-5 12-12z m66 90z m22 37c14-10 29-17 46-21 7-2 14 2 16 9 1 4 1 7-1 10-2 3-5 5-8 6-14 3-26 9-39 17-26 17-44 44-51 74-16 67 26 134 93 149 66 15 133-26 148-93 15-66-26-133-93-148-6-2-11-8-9-15 1-6 7-10 12-10 2 0 2 0 3 1 81 18 131 98 112 178-9 39-33 72-66 93-34 21-74 28-113 18-80-18-131-99-112-178 9-37 31-69 62-90z m-133 133c0 29-24 53-53 53-29 0-52-24-52-53 0-29 24-53 53-53 29 0 52 24 52 53z m-18 0c0-19-16-35-35-35-19 0-35 16-35 35 0 20 16 35 35 35 19 0 35-15 35-35z m-44-69l0-12c0-5 5-9 9-9 5 0 9 4 9 9l0 12c0 5-4 9-9 9-4 0-9-4-9-9z m32-10c2-3 5-5 9-5 0 0 2 0 3 1 4 1 6 7 5 12l-5 11c0 2-3 4-5 5-2 1-5 1-7-1-2 0-4-2-4-4-1-3-1-5 0-7z m28 15c2-1 4-2 7-2 2 0 4 1 6 2 2 2 3 4 3 7 0 2-2 4-3 6l-9 9c-3 3-9 3-12 0-4-4-4-9 0-13z m24 24c4 0 8 2 8 5 2 5 0 10-4 12l-12 5c-5 2-9 0-12-5-1-5 1-9 5-12l12-4c1-1 3-1 3-1z m-5 49c-2 1-4 0-6-2-2-1-3-4-3-7 0-4 4-8 8-8l13 0c4 0 8 4 8 8 0 5-4 9-8 9z m-14 13c2-3 5-5 8-5 1 0 3 0 4 1l11 5c4 2 7 7 5 12-2 4-7 7-12 5l-11-5c-6-3-7-8-5-13z m-13 20c1-2 4-2 6-2 2 0 5 1 6 2l9 9c2 2 3 4 3 6 0 3-2 5-3 7-3 3-9 3-13 0l-8-9c-2-2-3-4-3-6 0-3 1-5 3-7z m-20 14c1-2 3-2 4-2 3 0 8 3 8 6l5 12c2 5 0 9-5 12-5 1-9-1-12-5l-5-12c-2-4 0-9 5-11z m-23 4c5 0 9 4 9 9l0 12c0 5-4 9-9 9-4 0-9-4-9-9l0-12c0-5 5-9 9-9z m-34 0c2-4 5-6 8-6 1 0 2 0 3 1 5 2 7 7 5 12l-5 11c-1 4-6 7-11 5-5-2-7-7-5-12z m-21-18c2-2 5-2 7-2 2 0 5 1 6 2 4 4 4 10 0 13l-8 9c-2 1-5 2-7 2-2 0-4-1-6-2-2-2-3-4-3-7 0-2 2-4 3-6z m-23-19l11-5c1-1 3-1 3-1 4 0 8 3 8 6 2 5 0 9-4 12l-12 5c-5 2-9-1-12-5l0 0c-1-6 2-10 6-12z m9-32c5 0 9 4 9 9 0 4-4 8-9 8l-12 0c-5 1-9-3-9-8 0-3 1-5 2-7 2-1 4-3 7-3l12 0z m14-14c-1 2-2 4-5 5-3 1-5 1-7 0l-11-5c-3-1-4-2-6-5 0-2 0-5 1-7 2-4 5-6 8-6 1 0 2 0 4 1l11 5c5 2 7 8 5 12z m13-19c-3 3-10 3-13 0l-8-9c-4-3-4-9 0-13 2-1 4-2 6-2 2 0 5 1 7 2l8 9c2 2 3 4 3 6 0 3-1 5-3 7z m7-41c1-2 3-2 4-2 3 0 7 3 8 6l5 12c2 4 0 9-5 11-1 2-4 2-5 1-3-1-5-3-6-5l-5-12c-2-4 0-9 4-11z"/>
</font>
</defs>
</svg>
